<svg xmlns="http://www.w3.org/2000/svg" width="920" height="300" viewBox="0 0 920 300" font-family="Helvetica, Arial, sans-serif"><rect width="100%" height="100%" fill="white"/><text x="10" y="20" font-size="14" font-weight="bold" fill="#222">Pentatonic (home A4)</text><text x="10" y="131" font-size="11" fill="#444">E4</text><line x1="60" x2="905" y1="127.5" y2="127.5" stroke="#e4e4e4"/><text x="10" y="118" font-size="11" fill="#444">G4</text><line x1="60" x2="905" y1="114.5" y2="114.5" stroke="#e4e4e4"/><text x="10" y="105" font-size="11" fill="#444">A4</text><line x1="60" x2="905" y1="101.5" y2="101.5" stroke="#e4e4e4"/><text x="10" y="92" font-size="11" fill="#444">C5</text><line x1="60" x2="905" y1="88.5" y2="88.5" stroke="#e4e4e4"/><text x="10" y="79" font-size="11" fill="#444">D5</text><line x1="60" x2="905" y1="75.5" y2="75.5" stroke="#e4e4e4"/><text x="10" y="66" font-size="11" fill="#444">E5</text><line x1="60" x2="905" y1="62.5" y2="62.5" stroke="#e4e4e4"/><text x="10" y="53" font-size="11" fill="#444">G5</text><line x1="60" x2="905" y1="49.5" y2="49.5" stroke="#e4e4e4"/><text x="10" y="40" font-size="11" fill="#444">A5</text><line x1="60" x2="905" y1="36.5" y2="36.5" stroke="#e4e4e4"/><rect x="107.7" y="83.5" width="20.4" height="10" rx="2" fill="#2a6fb0"/><rect x="135.0" y="57.5" width="20.4" height="10" rx="2" fill="#2a6fb0"/><rect x="162.2" y="44.5" width="6.8" height="10" rx="2" fill="#2a6fb0"/><rect x="189.5" y="57.5" width="6.8" height="10" rx="2" fill="#2a6fb0"/><rect x="203.1" y="83.5" width="20.4" height="10" rx="2" fill="#2a6fb0"/><rect x="230.4" y="96.5" width="6.8" height="10" rx="2" fill="#2a6fb0"/><rect x="244.0" y="109.5" width="6.8" height="10" rx="2" fill="#2a6fb0"/><rect x="271.3" y="96.5" width="6.8" height="10" rx="2" fill="#2a6fb0"/><rect x="284.9" y="83.5" width="6.8" height="10" rx="2" fill="#2a6fb0"/><rect x="312.1" y="96.5" width="6.8" height="10" rx="2" fill="#2a6fb0"/><rect x="325.8" y="109.5" width="6.8" height="10" rx="2" fill="#2a6fb0"/><rect x="339.4" y="122.5" width="6.8" height="10" rx="2" fill="#2a6fb0"/><rect x="366.7" y="109.5" width="6.8" height="10" rx="2" fill="#2a6fb0"/><rect x="380.3" y="96.5" width="6.8" height="10" rx="2" fill="#2a6fb0"/><rect x="393.9" y="83.5" width="6.8" height="10" rx="2" fill="#2a6fb0"/><rect x="448.4" y="122.5" width="20.4" height="10" rx="2" fill="#2a6fb0"/><rect x="475.7" y="109.5" width="6.8" height="10" rx="2" fill="#2a6fb0"/><rect x="489.3" y="96.5" width="6.8" height="10" rx="2" fill="#2a6fb0"/><rect x="516.6" y="83.5" width="6.8" height="10" rx="2" fill="#2a6fb0"/><rect x="571.1" y="109.5" width="6.8" height="10" rx="2" fill="#2a6fb0"/><rect x="584.7" y="122.5" width="20.4" height="10" rx="2" fill="#2a6fb0"/><rect x="625.6" y="96.5" width="20.4" height="10" rx="2" fill="#2a6fb0"/><rect x="652.9" y="83.5" width="20.4" height="10" rx="2" fill="#2a6fb0"/><rect x="680.1" y="70.5" width="6.8" height="10" rx="2" fill="#2a6fb0"/><rect x="707.4" y="83.5" width="20.4" height="10" rx="2" fill="#2a6fb0"/><rect x="734.6" y="96.5" width="20.4" height="10" rx="2" fill="#2a6fb0"/><rect x="761.9" y="109.5" width="6.8" height="10" rx="2" fill="#2a6fb0"/><rect x="775.5" y="122.5" width="6.8" height="10" rx="2" fill="#2a6fb0"/><rect x="789.2" y="109.5" width="6.8" height="10" rx="2" fill="#2a6fb0"/><rect x="816.4" y="96.5" width="6.8" height="10" rx="2" fill="#2a6fb0"/><rect x="843.7" y="109.5" width="6.8" height="10" rx="2" fill="#2a6fb0"/><rect x="857.3" y="122.5" width="20.4" height="10" rx="2" fill="#2a6fb0"/><rect x="884.6" y="96.5" width="20.4" height="10" rx="2" fill="#2a6fb0"/><text x="10" y="155" font-size="14" font-weight="bold" fill="#222">Diabolus (home E4)</text><text x="10" y="266" font-size="11" fill="#444">E4</text><line x1="60" x2="905" y1="262.5" y2="262.5" stroke="#e4e4e4"/><text x="10" y="253" font-size="11" fill="#444">G#4</text><line x1="60" x2="905" y1="249.5" y2="249.5" stroke="#e4e4e4"/><text x="10" y="240" font-size="11" fill="#444">A#4</text><line x1="60" x2="905" y1="236.5" y2="236.5" stroke="#e4e4e4"/><text x="10" y="227" font-size="11" fill="#444">B4</text><line x1="60" x2="905" y1="223.5" y2="223.5" stroke="#e4e4e4"/><text x="10" y="214" font-size="11" fill="#444">D5</text><line x1="60" x2="905" y1="210.5" y2="210.5" stroke="#e4e4e4"/><text x="10" y="201" font-size="11" fill="#444">E5</text><line x1="60" x2="905" y1="197.5" y2="197.5" stroke="#e4e4e4"/><text x="10" y="188" font-size="11" fill="#444">F5</text><line x1="60" x2="905" y1="184.5" y2="184.5" stroke="#e4e4e4"/><text x="10" y="175" font-size="11" fill="#444">G#5</text><line x1="60" x2="905" y1="171.5" y2="171.5" stroke="#e4e4e4"/><rect x="107.7" y="244.5" width="20.4" height="10" rx="2" fill="#b8322a"/><rect x="135.0" y="218.5" width="20.4" height="10" rx="2" fill="#b8322a"/><rect x="162.2" y="205.5" width="6.8" height="10" rx="2" fill="#b8322a"/><rect x="189.5" y="218.5" width="6.8" height="10" rx="2" fill="#b8322a"/><rect x="203.1" y="244.5" width="20.4" height="10" rx="2" fill="#b8322a"/><rect x="230.4" y="257.5" width="6.8" height="10" rx="2" fill="#b8322a"/><rect x="244.0" y="244.5" width="6.8" height="10" rx="2" fill="#b8322a"/><rect x="271.3" y="231.5" width="6.8" height="10" rx="2" fill="#b8322a"/><rect x="284.9" y="218.5" width="6.8" height="10" rx="2" fill="#b8322a"/><rect x="312.1" y="231.5" width="6.8" height="10" rx="2" fill="#b8322a"/><rect x="325.8" y="244.5" width="6.8" height="10" rx="2" fill="#b8322a"/><rect x="339.4" y="257.5" width="6.8" height="10" rx="2" fill="#b8322a"/><rect x="366.7" y="244.5" width="6.8" height="10" rx="2" fill="#b8322a"/><rect x="380.3" y="231.5" width="6.8" height="10" rx="2" fill="#b8322a"/><rect x="393.9" y="218.5" width="6.8" height="10" rx="2" fill="#b8322a"/><rect x="448.4" y="244.5" width="20.4" height="10" rx="2" fill="#b8322a"/><rect x="475.7" y="231.5" width="6.8" height="10" rx="2" fill="#b8322a"/><rect x="489.3" y="218.5" width="6.8" height="10" rx="2" fill="#b8322a"/><rect x="516.6" y="205.5" width="6.8" height="10" rx="2" fill="#b8322a"/><rect x="571.1" y="244.5" width="6.8" height="10" rx="2" fill="#b8322a"/><rect x="584.7" y="218.5" width="20.4" height="10" rx="2" fill="#b8322a"/><rect x="625.6" y="192.5" width="20.4" height="10" rx="2" fill="#b8322a"/><rect x="652.9" y="166.5" width="20.4" height="10" rx="2" fill="#b8322a"/><rect x="680.1" y="179.5" width="6.8" height="10" rx="2" fill="#b8322a"/><rect x="707.4" y="192.5" width="20.4" height="10" rx="2" fill="#b8322a"/><rect x="734.6" y="218.5" width="20.4" height="10" rx="2" fill="#b8322a"/><rect x="761.9" y="231.5" width="6.8" height="10" rx="2" fill="#b8322a"/><rect x="775.5" y="244.5" width="6.8" height="10" rx="2" fill="#b8322a"/><rect x="789.2" y="257.5" width="6.8" height="10" rx="2" fill="#b8322a"/><rect x="816.4" y="244.5" width="6.8" height="10" rx="2" fill="#b8322a"/><rect x="843.7" y="231.5" width="6.8" height="10" rx="2" fill="#b8322a"/><rect x="857.3" y="218.5" width="20.4" height="10" rx="2" fill="#b8322a"/><rect x="884.6" y="257.5" width="20.4" height="10" rx="2" fill="#b8322a"/><text x="138.4" y="286" font-size="12" text-anchor="middle" fill="#222">G</text><text x="220.1" y="286" font-size="12" text-anchor="middle" fill="#222">L</text><text x="281.5" y="286" font-size="12" text-anchor="middle" fill="#222">I</text><text x="329.2" y="286" font-size="12" text-anchor="middle" fill="#222">S</text><text x="383.7" y="286" font-size="12" text-anchor="middle" fill="#222">S</text><text x="472.3" y="286" font-size="12" text-anchor="middle" fill="#222">D</text><text x="520.0" y="286" font-size="12" text-anchor="middle" fill="#222">E</text><text x="588.1" y="286" font-size="12" text-anchor="middle" fill="#222">A</text><text x="656.3" y="286" font-size="12" text-anchor="middle" fill="#222">G</text><text x="751.7" y="286" font-size="12" text-anchor="middle" fill="#222">7</text><text x="819.8" y="286" font-size="12" text-anchor="middle" fill="#222">E</text><text x="874.3" y="286" font-size="12" text-anchor="middle" fill="#222">W</text><text x="905" y="20" font-size="11" text-anchor="end" fill="#666">7.4 s at 20 WPM</text></svg>