<svg xmlns="http://www.w3.org/2000/svg" viewBox="0 0 580 222" width="580" height="222">
<rect width="580" height="222" rx="6" fill="#FFFFFF"/>
<g font-family="Menlo, Consolas, monospace">
<text x="20" y="32" font-size="12" fill="#1F2633">First frame of AG7SU's reply to you: 52 of 77 bits known</text>
<rect x="20" y="40" width="6" height="18" fill="#FFFFFF" stroke="#5A6477" stroke-width="0.6"/>
<rect x="27" y="40" width="6" height="18" fill="#0E7383" stroke="#5A6477" stroke-width="0.6"/>
<rect x="34" y="40" width="6" height="18" fill="#0E7383" stroke="#5A6477" stroke-width="0.6"/>
<rect x="41" y="40" width="6" height="18" fill="#0E7383" stroke="#5A6477" stroke-width="0.6"/>
<rect x="48" y="40" width="6" height="18" fill="#FFFFFF" stroke="#5A6477" stroke-width="0.6"/>
<rect x="55" y="40" width="6" height="18" fill="#FFFFFF" stroke="#5A6477" stroke-width="0.6"/>
<rect x="62" y="40" width="6" height="18" fill="#FFFFFF" stroke="#5A6477" stroke-width="0.6"/>
<rect x="69" y="40" width="6" height="18" fill="#FFFFFF" stroke="#5A6477" stroke-width="0.6"/>
<rect x="76" y="40" width="6" height="18" fill="#FFFFFF" stroke="#5A6477" stroke-width="0.6"/>
<rect x="83" y="40" width="6" height="18" fill="#0E7383" stroke="#5A6477" stroke-width="0.6"/>
<rect x="90" y="40" width="6" height="18" fill="#0E7383" stroke="#5A6477" stroke-width="0.6"/>
<rect x="97" y="40" width="6" height="18" fill="#0E7383" stroke="#5A6477" stroke-width="0.6"/>
<rect x="104" y="40" width="6" height="18" fill="#0E7383" stroke="#5A6477" stroke-width="0.6"/>
<rect x="111" y="40" width="6" height="18" fill="#0E7383" stroke="#5A6477" stroke-width="0.6"/>
<rect x="118" y="40" width="6" height="18" fill="#0E7383" stroke="#5A6477" stroke-width="0.6"/>
<rect x="125" y="40" width="6" height="18" fill="#0E7383" stroke="#5A6477" stroke-width="0.6"/>
<rect x="132" y="40" width="6" height="18" fill="#0E7383" stroke="#5A6477" stroke-width="0.6"/>
<rect x="139" y="40" width="6" height="18" fill="#0E7383" stroke="#5A6477" stroke-width="0.6"/>
<rect x="146" y="40" width="6" height="18" fill="#0E7383" stroke="#5A6477" stroke-width="0.6"/>
<rect x="153" y="40" width="6" height="18" fill="#0E7383" stroke="#5A6477" stroke-width="0.6"/>
<rect x="160" y="40" width="6" height="18" fill="#0E7383" stroke="#5A6477" stroke-width="0.6"/>
<rect x="167" y="40" width="6" height="18" fill="#0E7383" stroke="#5A6477" stroke-width="0.6"/>
<rect x="174" y="40" width="6" height="18" fill="#0E7383" stroke="#5A6477" stroke-width="0.6"/>
<rect x="181" y="40" width="6" height="18" fill="#0E7383" stroke="#5A6477" stroke-width="0.6"/>
<rect x="188" y="40" width="6" height="18" fill="#0E7383" stroke="#5A6477" stroke-width="0.6"/>
<rect x="195" y="40" width="6" height="18" fill="#0E7383" stroke="#5A6477" stroke-width="0.6"/>
<rect x="202" y="40" width="6" height="18" fill="#0E7383" stroke="#5A6477" stroke-width="0.6"/>
<rect x="209" y="40" width="6" height="18" fill="#0E7383" stroke="#5A6477" stroke-width="0.6"/>
<rect x="216" y="40" width="6" height="18" fill="#0E7383" stroke="#5A6477" stroke-width="0.6"/>
<rect x="223" y="40" width="6" height="18" fill="#0E7383" stroke="#5A6477" stroke-width="0.6"/>
<rect x="230" y="40" width="6" height="18" fill="#0E7383" stroke="#5A6477" stroke-width="0.6"/>
<rect x="237" y="40" width="6" height="18" fill="#0E7383" stroke="#5A6477" stroke-width="0.6"/>
<rect x="244" y="40" width="6" height="18" fill="#0E7383" stroke="#5A6477" stroke-width="0.6"/>
<rect x="251" y="40" width="6" height="18" fill="#0E7383" stroke="#5A6477" stroke-width="0.6"/>
<rect x="258" y="40" width="6" height="18" fill="#0E7383" stroke="#5A6477" stroke-width="0.6"/>
<rect x="265" y="40" width="6" height="18" fill="#0E7383" stroke="#5A6477" stroke-width="0.6"/>
<rect x="272" y="40" width="6" height="18" fill="#0E7383" stroke="#5A6477" stroke-width="0.6"/>
<rect x="279" y="40" width="6" height="18" fill="#0E7383" stroke="#5A6477" stroke-width="0.6"/>
<rect x="286" y="40" width="6" height="18" fill="#0E7383" stroke="#5A6477" stroke-width="0.6"/>
<rect x="293" y="40" width="6" height="18" fill="#0E7383" stroke="#5A6477" stroke-width="0.6"/>
<rect x="300" y="40" width="6" height="18" fill="#0E7383" stroke="#5A6477" stroke-width="0.6"/>
<rect x="307" y="40" width="6" height="18" fill="#0E7383" stroke="#5A6477" stroke-width="0.6"/>
<rect x="314" y="40" width="6" height="18" fill="#0E7383" stroke="#5A6477" stroke-width="0.6"/>
<rect x="321" y="40" width="6" height="18" fill="#0E7383" stroke="#5A6477" stroke-width="0.6"/>
<rect x="328" y="40" width="6" height="18" fill="#0E7383" stroke="#5A6477" stroke-width="0.6"/>
<rect x="335" y="40" width="6" height="18" fill="#0E7383" stroke="#5A6477" stroke-width="0.6"/>
<rect x="342" y="40" width="6" height="18" fill="#0E7383" stroke="#5A6477" stroke-width="0.6"/>
<rect x="349" y="40" width="6" height="18" fill="#0E7383" stroke="#5A6477" stroke-width="0.6"/>
<rect x="356" y="40" width="6" height="18" fill="#0E7383" stroke="#5A6477" stroke-width="0.6"/>
<rect x="363" y="40" width="6" height="18" fill="#0E7383" stroke="#5A6477" stroke-width="0.6"/>
<rect x="370" y="40" width="6" height="18" fill="#0E7383" stroke="#5A6477" stroke-width="0.6"/>
<rect x="377" y="40" width="6" height="18" fill="#0E7383" stroke="#5A6477" stroke-width="0.6"/>
<rect x="384" y="40" width="6" height="18" fill="#0E7383" stroke="#5A6477" stroke-width="0.6"/>
<rect x="391" y="40" width="6" height="18" fill="#0E7383" stroke="#5A6477" stroke-width="0.6"/>
<rect x="398" y="40" width="6" height="18" fill="#0E7383" stroke="#5A6477" stroke-width="0.6"/>
<rect x="405" y="40" width="6" height="18" fill="#0E7383" stroke="#5A6477" stroke-width="0.6"/>
<rect x="412" y="40" width="6" height="18" fill="#0E7383" stroke="#5A6477" stroke-width="0.6"/>
<rect x="419" y="40" width="6" height="18" fill="#0E7383" stroke="#5A6477" stroke-width="0.6"/>
<rect x="426" y="40" width="6" height="18" fill="#FFFFFF" stroke="#5A6477" stroke-width="0.6"/>
<rect x="433" y="40" width="6" height="18" fill="#FFFFFF" stroke="#5A6477" stroke-width="0.6"/>
<rect x="440" y="40" width="6" height="18" fill="#FFFFFF" stroke="#5A6477" stroke-width="0.6"/>
<rect x="447" y="40" width="6" height="18" fill="#FFFFFF" stroke="#5A6477" stroke-width="0.6"/>
<rect x="454" y="40" width="6" height="18" fill="#FFFFFF" stroke="#5A6477" stroke-width="0.6"/>
<rect x="461" y="40" width="6" height="18" fill="#FFFFFF" stroke="#5A6477" stroke-width="0.6"/>
<rect x="468" y="40" width="6" height="18" fill="#FFFFFF" stroke="#5A6477" stroke-width="0.6"/>
<rect x="475" y="40" width="6" height="18" fill="#FFFFFF" stroke="#5A6477" stroke-width="0.6"/>
<rect x="482" y="40" width="6" height="18" fill="#FFFFFF" stroke="#5A6477" stroke-width="0.6"/>
<rect x="489" y="40" width="6" height="18" fill="#FFFFFF" stroke="#5A6477" stroke-width="0.6"/>
<rect x="496" y="40" width="6" height="18" fill="#FFFFFF" stroke="#5A6477" stroke-width="0.6"/>
<rect x="503" y="40" width="6" height="18" fill="#FFFFFF" stroke="#5A6477" stroke-width="0.6"/>
<rect x="510" y="40" width="6" height="18" fill="#FFFFFF" stroke="#5A6477" stroke-width="0.6"/>
<rect x="517" y="40" width="6" height="18" fill="#FFFFFF" stroke="#5A6477" stroke-width="0.6"/>
<rect x="524" y="40" width="6" height="18" fill="#FFFFFF" stroke="#5A6477" stroke-width="0.6"/>
<rect x="531" y="40" width="6" height="18" fill="#FFFFFF" stroke="#5A6477" stroke-width="0.6"/>
<rect x="538" y="40" width="6" height="18" fill="#FFFFFF" stroke="#5A6477" stroke-width="0.6"/>
<rect x="545" y="40" width="6" height="18" fill="#FFFFFF" stroke="#5A6477" stroke-width="0.6"/>
<rect x="552" y="40" width="6" height="18" fill="#FFFFFF" stroke="#5A6477" stroke-width="0.6"/>
<line x1="20" y1="64" x2="54" y2="64" stroke="#5A6477" stroke-width="1"/>
<line x1="20" y1="61" x2="20" y2="67" stroke="#5A6477"/><line x1="54" y1="61" x2="54" y2="67" stroke="#5A6477"/>
<text x="37.0" y="79" font-size="10" text-anchor="middle" fill="#5A6477">seg</text>
<line x1="55" y1="64" x2="82" y2="64" stroke="#5A6477" stroke-width="1"/>
<line x1="55" y1="61" x2="55" y2="67" stroke="#5A6477"/><line x1="82" y1="61" x2="82" y2="67" stroke="#5A6477"/>
<text x="68.5" y="79" font-size="10" text-anchor="middle" fill="#5A6477">type</text>
<line x1="83" y1="64" x2="222" y2="64" stroke="#5A6477" stroke-width="1"/>
<line x1="83" y1="61" x2="83" y2="67" stroke="#5A6477"/><line x1="222" y1="61" x2="222" y2="67" stroke="#5A6477"/>
<text x="152.5" y="79" font-size="10" text-anchor="middle" fill="#5A6477">to: your hash</text>
<line x1="223" y1="64" x2="425" y2="64" stroke="#5A6477" stroke-width="1"/>
<line x1="223" y1="61" x2="223" y2="67" stroke="#5A6477"/><line x1="425" y1="61" x2="425" y2="67" stroke="#5A6477"/>
<text x="324.0" y="79" font-size="10" text-anchor="middle" fill="#5A6477">from: AG7SU</text>
<line x1="426" y1="64" x2="558" y2="64" stroke="#5A6477" stroke-width="1"/>
<line x1="426" y1="61" x2="426" y2="67" stroke="#5A6477"/><line x1="558" y1="61" x2="558" y2="67" stroke="#5A6477"/>
<text x="492.0" y="79" font-size="10" text-anchor="middle" fill="#5A6477">no., text</text>
<text x="20" y="122" font-size="12" fill="#1F2633">Last frame of a message carrying one byte: 64 of 77 bits known</text>
<rect x="20" y="130" width="6" height="18" fill="#FFFFFF" stroke="#5A6477" stroke-width="0.6"/>
<rect x="27" y="130" width="6" height="18" fill="#FFFFFF" stroke="#5A6477" stroke-width="0.6"/>
<rect x="34" y="130" width="6" height="18" fill="#FFFFFF" stroke="#5A6477" stroke-width="0.6"/>
<rect x="41" y="130" width="6" height="18" fill="#FFFFFF" stroke="#5A6477" stroke-width="0.6"/>
<rect x="48" y="130" width="6" height="18" fill="#FFFFFF" stroke="#5A6477" stroke-width="0.6"/>
<rect x="55" y="130" width="6" height="18" fill="#FFFFFF" stroke="#5A6477" stroke-width="0.6"/>
<rect x="62" y="130" width="6" height="18" fill="#FFFFFF" stroke="#5A6477" stroke-width="0.6"/>
<rect x="69" y="130" width="6" height="18" fill="#FFFFFF" stroke="#5A6477" stroke-width="0.6"/>
<rect x="76" y="130" width="6" height="18" fill="#FFFFFF" stroke="#5A6477" stroke-width="0.6"/>
<rect x="83" y="130" width="6" height="18" fill="#FFFFFF" stroke="#5A6477" stroke-width="0.6"/>
<rect x="90" y="130" width="6" height="18" fill="#FFFFFF" stroke="#5A6477" stroke-width="0.6"/>
<rect x="97" y="130" width="6" height="18" fill="#FFFFFF" stroke="#5A6477" stroke-width="0.6"/>
<rect x="104" y="130" width="6" height="18" fill="#FFFFFF" stroke="#5A6477" stroke-width="0.6"/>
<rect x="111" y="130" width="6" height="18" fill="#0E7383" stroke="#5A6477" stroke-width="0.6"/>
<rect x="118" y="130" width="6" height="18" fill="#0E7383" stroke="#5A6477" stroke-width="0.6"/>
<rect x="125" y="130" width="6" height="18" fill="#0E7383" stroke="#5A6477" stroke-width="0.6"/>
<rect x="132" y="130" width="6" height="18" fill="#0E7383" stroke="#5A6477" stroke-width="0.6"/>
<rect x="139" y="130" width="6" height="18" fill="#0E7383" stroke="#5A6477" stroke-width="0.6"/>
<rect x="146" y="130" width="6" height="18" fill="#0E7383" stroke="#5A6477" stroke-width="0.6"/>
<rect x="153" y="130" width="6" height="18" fill="#0E7383" stroke="#5A6477" stroke-width="0.6"/>
<rect x="160" y="130" width="6" height="18" fill="#0E7383" stroke="#5A6477" stroke-width="0.6"/>
<rect x="167" y="130" width="6" height="18" fill="#0E7383" stroke="#5A6477" stroke-width="0.6"/>
<rect x="174" y="130" width="6" height="18" fill="#0E7383" stroke="#5A6477" stroke-width="0.6"/>
<rect x="181" y="130" width="6" height="18" fill="#0E7383" stroke="#5A6477" stroke-width="0.6"/>
<rect x="188" y="130" width="6" height="18" fill="#0E7383" stroke="#5A6477" stroke-width="0.6"/>
<rect x="195" y="130" width="6" height="18" fill="#0E7383" stroke="#5A6477" stroke-width="0.6"/>
<rect x="202" y="130" width="6" height="18" fill="#0E7383" stroke="#5A6477" stroke-width="0.6"/>
<rect x="209" y="130" width="6" height="18" fill="#0E7383" stroke="#5A6477" stroke-width="0.6"/>
<rect x="216" y="130" width="6" height="18" fill="#0E7383" stroke="#5A6477" stroke-width="0.6"/>
<rect x="223" y="130" width="6" height="18" fill="#0E7383" stroke="#5A6477" stroke-width="0.6"/>
<rect x="230" y="130" width="6" height="18" fill="#0E7383" stroke="#5A6477" stroke-width="0.6"/>
<rect x="237" y="130" width="6" height="18" fill="#0E7383" stroke="#5A6477" stroke-width="0.6"/>
<rect x="244" y="130" width="6" height="18" fill="#0E7383" stroke="#5A6477" stroke-width="0.6"/>
<rect x="251" y="130" width="6" height="18" fill="#0E7383" stroke="#5A6477" stroke-width="0.6"/>
<rect x="258" y="130" width="6" height="18" fill="#0E7383" stroke="#5A6477" stroke-width="0.6"/>
<rect x="265" y="130" width="6" height="18" fill="#0E7383" stroke="#5A6477" stroke-width="0.6"/>
<rect x="272" y="130" width="6" height="18" fill="#0E7383" stroke="#5A6477" stroke-width="0.6"/>
<rect x="279" y="130" width="6" height="18" fill="#0E7383" stroke="#5A6477" stroke-width="0.6"/>
<rect x="286" y="130" width="6" height="18" fill="#0E7383" stroke="#5A6477" stroke-width="0.6"/>
<rect x="293" y="130" width="6" height="18" fill="#0E7383" stroke="#5A6477" stroke-width="0.6"/>
<rect x="300" y="130" width="6" height="18" fill="#0E7383" stroke="#5A6477" stroke-width="0.6"/>
<rect x="307" y="130" width="6" height="18" fill="#0E7383" stroke="#5A6477" stroke-width="0.6"/>
<rect x="314" y="130" width="6" height="18" fill="#0E7383" stroke="#5A6477" stroke-width="0.6"/>
<rect x="321" y="130" width="6" height="18" fill="#0E7383" stroke="#5A6477" stroke-width="0.6"/>
<rect x="328" y="130" width="6" height="18" fill="#0E7383" stroke="#5A6477" stroke-width="0.6"/>
<rect x="335" y="130" width="6" height="18" fill="#0E7383" stroke="#5A6477" stroke-width="0.6"/>
<rect x="342" y="130" width="6" height="18" fill="#0E7383" stroke="#5A6477" stroke-width="0.6"/>
<rect x="349" y="130" width="6" height="18" fill="#0E7383" stroke="#5A6477" stroke-width="0.6"/>
<rect x="356" y="130" width="6" height="18" fill="#0E7383" stroke="#5A6477" stroke-width="0.6"/>
<rect x="363" y="130" width="6" height="18" fill="#0E7383" stroke="#5A6477" stroke-width="0.6"/>
<rect x="370" y="130" width="6" height="18" fill="#0E7383" stroke="#5A6477" stroke-width="0.6"/>
<rect x="377" y="130" width="6" height="18" fill="#0E7383" stroke="#5A6477" stroke-width="0.6"/>
<rect x="384" y="130" width="6" height="18" fill="#0E7383" stroke="#5A6477" stroke-width="0.6"/>
<rect x="391" y="130" width="6" height="18" fill="#0E7383" stroke="#5A6477" stroke-width="0.6"/>
<rect x="398" y="130" width="6" height="18" fill="#0E7383" stroke="#5A6477" stroke-width="0.6"/>
<rect x="405" y="130" width="6" height="18" fill="#0E7383" stroke="#5A6477" stroke-width="0.6"/>
<rect x="412" y="130" width="6" height="18" fill="#0E7383" stroke="#5A6477" stroke-width="0.6"/>
<rect x="419" y="130" width="6" height="18" fill="#0E7383" stroke="#5A6477" stroke-width="0.6"/>
<rect x="426" y="130" width="6" height="18" fill="#0E7383" stroke="#5A6477" stroke-width="0.6"/>
<rect x="433" y="130" width="6" height="18" fill="#0E7383" stroke="#5A6477" stroke-width="0.6"/>
<rect x="440" y="130" width="6" height="18" fill="#0E7383" stroke="#5A6477" stroke-width="0.6"/>
<rect x="447" y="130" width="6" height="18" fill="#0E7383" stroke="#5A6477" stroke-width="0.6"/>
<rect x="454" y="130" width="6" height="18" fill="#0E7383" stroke="#5A6477" stroke-width="0.6"/>
<rect x="461" y="130" width="6" height="18" fill="#0E7383" stroke="#5A6477" stroke-width="0.6"/>
<rect x="468" y="130" width="6" height="18" fill="#0E7383" stroke="#5A6477" stroke-width="0.6"/>
<rect x="475" y="130" width="6" height="18" fill="#0E7383" stroke="#5A6477" stroke-width="0.6"/>
<rect x="482" y="130" width="6" height="18" fill="#0E7383" stroke="#5A6477" stroke-width="0.6"/>
<rect x="489" y="130" width="6" height="18" fill="#0E7383" stroke="#5A6477" stroke-width="0.6"/>
<rect x="496" y="130" width="6" height="18" fill="#0E7383" stroke="#5A6477" stroke-width="0.6"/>
<rect x="503" y="130" width="6" height="18" fill="#0E7383" stroke="#5A6477" stroke-width="0.6"/>
<rect x="510" y="130" width="6" height="18" fill="#0E7383" stroke="#5A6477" stroke-width="0.6"/>
<rect x="517" y="130" width="6" height="18" fill="#0E7383" stroke="#5A6477" stroke-width="0.6"/>
<rect x="524" y="130" width="6" height="18" fill="#0E7383" stroke="#5A6477" stroke-width="0.6"/>
<rect x="531" y="130" width="6" height="18" fill="#0E7383" stroke="#5A6477" stroke-width="0.6"/>
<rect x="538" y="130" width="6" height="18" fill="#0E7383" stroke="#5A6477" stroke-width="0.6"/>
<rect x="545" y="130" width="6" height="18" fill="#0E7383" stroke="#5A6477" stroke-width="0.6"/>
<rect x="552" y="130" width="6" height="18" fill="#0E7383" stroke="#5A6477" stroke-width="0.6"/>
<line x1="20" y1="154" x2="54" y2="154" stroke="#5A6477" stroke-width="1"/>
<line x1="20" y1="151" x2="20" y2="157" stroke="#5A6477"/><line x1="54" y1="151" x2="54" y2="157" stroke="#5A6477"/>
<text x="37.0" y="169" font-size="10" text-anchor="middle" fill="#5A6477">seg</text>
<line x1="55" y1="154" x2="110" y2="154" stroke="#5A6477" stroke-width="1"/>
<line x1="55" y1="151" x2="55" y2="157" stroke="#5A6477"/><line x1="110" y1="151" x2="110" y2="157" stroke="#5A6477"/>
<text x="82.5" y="169" font-size="10" text-anchor="middle" fill="#5A6477">data</text>
<line x1="111" y1="154" x2="558" y2="154" stroke="#5A6477" stroke-width="1"/>
<line x1="111" y1="151" x2="111" y2="157" stroke="#5A6477"/><line x1="558" y1="151" x2="558" y2="157" stroke="#5A6477"/>
<text x="334.5" y="169" font-size="10" text-anchor="middle" fill="#5A6477">zero padding</text>
<rect x="20" y="200" width="10" height="10" fill="#0E7383"/><text x="36" y="209" font-size="11" fill="#5A6477">bit the receiver can guess</text>
<rect x="240" y="200" width="10" height="10" fill="#FFFFFF" stroke="#5A6477" stroke-width="0.6"/><text x="256" y="209" font-size="11" fill="#5A6477">bit it must decode</text>
</g>
</svg>
